<?xml version="1.0" encoding="utf-8"?>
<!-- Generator: Adobe Illustrator 16.0.4, SVG Export Plug-In . SVG Version: 6.00 Build 0)  -->
<!DOCTYPE svg PUBLIC "-//W3C//DTD SVG 1.1//EN" "http://www.w3.org/Graphics/SVG/1.1/DTD/svg11.dtd">
<svg version="1.1" id="Layer_1" xmlns="http://www.w3.org/2000/svg" xmlns:xlink="http://www.w3.org/1999/xlink" x="0px" y="0px"
	 width="433px" height="500px" viewBox="0 0 433 500" enable-background="new 0 0 433 500" xml:space="preserve">
<g>
	<polygon fill="#F26E26" points="433,376.443 217.935,499.47 0,376.443 0,125.443 216.634,0 433,125.443 	"/>
	<g>
		<g>
			<polygon fill="#FFFFFF" points="115,112.443 115,181.443 88,181.443 88,207.443 115,207.443 115,293.443 143,293.443 
				143,112.443 			"/>
			<polygon fill="#FFFFFF" points="88,207.443 60,207.443 60,320.443 115,320.443 115,293.443 88,293.443 			"/>
		</g>
		<g>
			<rect x="199" y="293.443" fill="#FFFFFF" width="55" height="27"/>
			<polygon fill="#FFFFFF" points="254,264.443 254,181.443 199,181.443 199,207.443 227,207.443 227.001,238.443 199,238.443 
				199,207.443 171,207.443 171,293.443 199,293.443 199,264.443 			"/>
		</g>
		<g>
			<polygon fill="#FFFFFF" points="310,207.443 282,207.443 282,414.443 310,414.443 310,320.443 338,320.443 338,293.443 
				310,293.443 			"/>
			<polygon fill="#FFFFFF" points="310,181.443 310,207.443 338,207.443 338,293.443 366,293.443 366,181.443 			"/>
		</g>
	</g>
</g>
</svg>
